<svg id="Layer_1" data-name="Layer 1" xmlns="http://www.w3.org/2000/svg" viewBox="0 0 419 143"><defs><style>.cls-1{fill:#48e7f6;}.cls-2{fill:#9248f9;}.cls-3{fill:#6631d7;}.cls-4{fill:#585d61;}</style></defs><title>Artboard 13</title><path class="cls-1" d="M96.41,74c0-12.64-5.4-24.06-13.87-30.21a1.81,1.81,0,0,0-.32-.22,32.56,32.56,0,0,1-7.94-8.21c-2.41-3.48-6.29-9.78-7.59-14.23v6.76C76,34.29,82.32,47.05,82.32,61.71v53.17a23.9,23.9,0,0,0,13.81,4.5h.3Z"/><path class="cls-2" d="M66.69,81.05V27.87a24,24,0,0,0-13.81-4.49h-.3l0,45.39C52.62,81.41,58,92.83,66.47,99a1.81,1.81,0,0,0,.32.22,32.52,32.52,0,0,1,7.94,8.2c2.41,3.48,6.3,9.78,7.59,14.23v-6.76C73,108.46,66.69,95.71,66.69,81.05"/><path class="cls-3" d="M66.69,27.87V81.05c0,14.66,6.34,27.41,15.63,33.83V61.71c0-14.66-6.34-27.42-15.63-33.84"/><path class="cls-4" d="M118.75,53h6l11.27,29.38L147.37,53h6L139,89.72H133.2Z"/><path class="cls-4" d="M160.21,53h15.47a11.66,11.66,0,0,1,8.46,3.25,10.78,10.78,0,0,1,3.35,8,11.3,11.3,0,0,1-.77,4.22,9.47,9.47,0,0,1-1.84,3.09,21.36,21.36,0,0,1-2.15,2,7.82,7.82,0,0,1-1.85,1.15l-.74.33,8.4,14.68h-6.3l-7.86-14.16H166V89.72h-5.76ZM180,60a5.79,5.79,0,0,0-4.29-1.73H166V70.3h9.71A6.08,6.08,0,0,0,180,60Z"/><path class="cls-4" d="M196.93,53h5.76V89.72h-5.76Z"/><path class="cls-4" d="M239.66,84.47v5.25H213.17V53h26v5.25H218.93V68h16V73.2h-16V84.47Z"/><path class="cls-4" d="M278.73,53V89.72h-5L253.29,63.23V89.72h-5.76V53h5L273,79.5V53Z"/><path class="cls-4" d="M302.1,53a18,18,0,0,1,13.15,5.43,18,18,0,0,1,0,25.87,18,18,0,0,1-13.15,5.43H289.24V53ZM295,58.24V84.47h7.09a12.3,12.3,0,0,0,9.1-3.8,13.47,13.47,0,0,0,0-18.63,12.3,12.3,0,0,0-9.1-3.8Z"/><path class="cls-4" d="M329.11,89.72V53h5.77V84.47h17.83v5.25Z"/><path class="cls-4" d="M367.39,70.56l10-17.57h6.3l-13.4,23.62V89.72H364.5V76.61L351.12,53h6.3Z"/></svg>